# Made in Blockbench 4.9.3
mtllib Drawer Frame.mtl

o cuboid
v -0.43749999999999994 0.75 0.2500000000000001
v 0.43750000000000006 0.75 0.2499999999999999
v -0.43749999999999994 0.0625 0.2500000000000001
v 0.43750000000000006 0.0625 0.2499999999999999
v -0.43750000000000006 0.75 -0.2499999999999999
v 0.43749999999999994 0.75 -0.2500000000000001
v -0.43750000000000006 0.0625 -0.2499999999999999
v 0.43749999999999994 0.0625 -0.2500000000000001
v -0.4000000000000001 0.715625 -0.24999999999999992
v 0.39999999999999997 0.715625 -0.2500000000000001
v -0.4000000000000001 0.103125 -0.24999999999999992
v 0.39999999999999997 0.103125 -0.2500000000000001
v 0.4000000000000001 0.715625 0.18749999999999992
v -0.39999999999999997 0.715625 0.18750000000000008
v -0.39999999999999997 0.103125 0.18750000000000008
v 0.4000000000000001 0.103125 0.18749999999999992
vt 0 0.328125
vt 0.125 0.328125
vt 0.125 0.546875
vt 0 0.546875
vt 0.265625 0.328125
vt 0.265625 0.546875
vt 0.140625 0.546875
vt 0.140625 0.328125
vt 0.009374999999999994 0.72578125
vt 0.209375 0.72578125
vt 0.21875 0.734375
vt 0 0.734375
vt 0.209375 0.5726562500000001
vt 0.009374999999999994 0.57265625
vt 0 0.5625
vt 0.21875 0.5625000000000001
vt 0.390625 0.34375
vt 0.390625 0.546875
vt 0.28125 0.546875
vt 0.28125 0.34375
vt 0.515625 0.34375
vt 0.515625 0.546875
vt 0.40625 0.546875
vt 0.40625 0.34375
vt 0.640625 0.296875
vt 0.640625 0.453125
vt 0.53125 0.453125
vt 0.53125 0.296875
vt 0.009374999999999994 0.57265625
vt 0.009374999999999994 0.72578125
vt 0 0.734375
vt 0 0.5625
vt 0.59375 0.65625
vt 0.59375 0.828125
vt 0.46875 0.828125
vt 0.46875 0.65625
vt 0.453125 0.5625
vt 0.453125 0.734375
vt 0.234375 0.734375
vt 0.234375 0.5625
vt 0.65625 0.46875
vt 0.65625 0.640625
vt 0.53125 0.640625
vt 0.53125 0.46875
vt 0.21875 0.5625
vt 0.21875 0.734375
vt 0.209375 0.72578125
vt 0.209375 0.57265625
vt 0.546875 0.84375
vt 0.546875 1
vt 0.34375 1
vt 0.34375 0.84375
vt 0.671875 0.84375
vt 0.671875 1
vt 0.5625 1
vt 0.5625 0.84375
vn 0 1 0
vn 0 -1 0
vn -2.220446049250313e-16 0 -1
vn -2.220446049250313e-16 0 -1
vn 0 -1 0
vn 0 1 0
vn -1 0 2.220446049250313e-16
vn -2.220446049250313e-16 0 -1
vn 1 0 -2.220446049250313e-16
vn 2.220446049250313e-16 0 1
vn -1 0 2.220446049250313e-16
vn -2.220446049250313e-16 0 -1
vn -2.220446049250313e-16 0 -1
vn 1 0 -2.220446049250313e-16
usemtl m_bd2cf034-8b2d-6924-7c43-12943ba4a13c
f 5/1/1 1/2/1 2/3/1 6/4/1
f 4/5/2 3/6/2 7/7/2 8/8/2
f 10/9/3 9/10/3 5/11/3 6/12/3
f 11/13/4 12/14/4 8/15/4 7/16/4
f 13/17/5 14/18/5 9/19/5 10/20/5
f 15/21/6 16/22/6 12/23/6 11/24/6
f 16/25/7 13/26/7 10/27/7 12/28/7
f 12/29/8 10/30/8 6/31/8 8/32/8
f 8/33/9 6/34/9 2/35/9 4/36/9
f 4/37/10 2/38/10 1/39/10 3/40/10
f 3/41/11 1/42/11 5/43/11 7/44/11
f 7/45/12 5/46/12 9/47/12 11/48/12
f 15/49/13 14/50/13 13/51/13 16/52/13
f 11/53/14 9/54/14 14/55/14 15/56/14
o cuboid
v -0.49999999999999994 0.8125 0.3125000000000001
v 0.5000000000000001 0.8125 0.3124999999999999
v -0.49999999999999994 0.75 0.3125000000000001
v 0.5000000000000001 0.75 0.3124999999999999
v -0.5000000000000001 0.8125 -0.3124999999999999
v 0.49999999999999994 0.8125 -0.3125000000000001
v -0.5000000000000001 0.75 -0.3124999999999999
v 0.49999999999999994 0.75 -0.3125000000000001
vt 0.859375 0.828125
vt 0.609375 0.828125
vt 0.609375 0.8125
vt 0.859375 0.8125
vt 0.859375 0.78125
vt 0.859375 0.796875
vt 0.609375 0.796875
vt 0.609375 0.78125
vt 0 0.75
vt 0.15625 0.75
vt 0.15625 1
vt 0 1
vt 0.328125 0.75
vt 0.328125 1
vt 0.171875 1
vt 0.171875 0.75
vt 0.1875 0.59375
vt 0.1875 0.609375
vt 0.03125 0.609375
vt 0.03125 0.59375
vt 0.765625 0.671875
vt 0.609375 0.671875
vt 0.609375 0.65625
vt 0.765625 0.65625
vn 2.220446049250313e-16 0 1
vn -2.220446049250313e-16 0 -1
vn 0 1 0
vn 0 -1 0
vn -1 0 2.220446049250313e-16
vn 1 0 -2.220446049250313e-16
usemtl m_bd2cf034-8b2d-6924-7c43-12943ba4a13c
f 18/57/15 17/58/15 19/59/15 20/60/15
f 23/61/16 21/62/16 22/63/16 24/64/16
f 21/65/17 17/66/17 18/67/17 22/68/17
f 20/69/18 19/70/18 23/71/18 24/72/18
f 19/73/19 17/74/19 21/75/19 23/76/19
f 22/77/20 18/78/20 20/79/20 24/80/20
o cube
v 0.3125 0.0625 0.25
v 0.4375 0.0625 0.2499999999999999
v 0.3125 0 0.25
v 0.4375 0 0.2499999999999999
v 0.4375 0.0625 -0.2500000000000001
v 0.3125 0.0625 -0.25000000000000006
v 0.4375 0 -0.2500000000000001
v 0.3125 0 -0.25000000000000006
vt 0.65625 0.453125
vt 0.78125 0.453125
vt 0.78125 0.4375
vt 0.65625 0.4375
vt 0.34375 0.828125
vt 0.375 0.828125
vt 0.375 0.8125
vt 0.34375 0.8125
vt 0.65625 0.421875
vt 0.78125 0.421875
vt 0.78125 0.40625
vt 0.65625 0.40625
vt 0.34375 0.796875
vt 0.375 0.796875
vt 0.375 0.78125
vt 0.34375 0.78125
vt 0.15625 0.671875
vt 0.03125 0.671875
vt 0.03125 0.703125
vt 0.15625 0.703125
vt 0.15625 0.65625
vt 0.03125 0.65625
vt 0.03125 0.625
vt 0.15625 0.625
vn 1 0 -2.220446049250313e-16
vn 2.220446049250313e-16 0 1
vn -1 0 2.220446049250313e-16
vn -2.220446049250313e-16 0 -1
vn 0 1 0
vn 0 -1 0
usemtl m_bd2cf034-8b2d-6924-7c43-12943ba4a13c
f 28/84/21 31/83/21 29/82/21 26/81/21
f 27/88/22 28/87/22 26/86/22 25/85/22
f 32/92/23 27/91/23 25/90/23 30/89/23
f 31/96/24 32/95/24 30/94/24 29/93/24
f 30/100/25 25/99/25 26/98/25 29/97/25
f 31/104/26 28/103/26 27/102/26 32/101/26
o cube
v -0.43749999999999994 0.0625 0.2500000000000001
v -0.31249999999999994 0.0625 0.25
v -0.43749999999999994 0 0.2500000000000001
v -0.31249999999999994 0 0.25
v -0.31250000000000006 0.0625 -0.24999999999999994
v -0.43750000000000006 0.0625 -0.2499999999999999
v -0.31250000000000006 0 -0.24999999999999994
v -0.43750000000000006 0 -0.2499999999999999
vt 0.65625 0.390625
vt 0.78125 0.390625
vt 0.78125 0.375
vt 0.65625 0.375
vt 0.34375 0.765625
vt 0.375 0.765625
vt 0.375 0.75
vt 0.34375 0.75
vt 0.65625 0.359375
vt 0.78125 0.359375
vt 0.78125 0.34375
vt 0.65625 0.34375
vt 0.390625 0.828125
vt 0.421875 0.828125
vt 0.421875 0.8125
vt 0.390625 0.8125
vt 0.734375 0.734375
vt 0.609375 0.734375
vt 0.609375 0.765625
vt 0.734375 0.765625
vt 0.734375 0.71875
vt 0.609375 0.71875
vt 0.609375 0.6875
vt 0.734375 0.6875
vn 1 0 -2.220446049250313e-16
vn 2.220446049250313e-16 0 1
vn -1 0 2.220446049250313e-16
vn -2.220446049250313e-16 0 -1
vn 0 1 0
vn 0 -1 0
usemtl m_bd2cf034-8b2d-6924-7c43-12943ba4a13c
f 36/108/27 39/107/27 37/106/27 34/105/27
f 35/112/28 36/111/28 34/110/28 33/109/28
f 40/116/29 35/115/29 33/114/29 38/113/29
f 39/120/30 40/119/30 38/118/30 37/117/30
f 38/124/31 33/123/31 34/122/31 37/121/31
f 39/128/32 36/127/32 35/126/32 40/125/32